<svg width="561" height="557" viewBox="0 0 561 557" fill="none" xmlns="http://www.w3.org/2000/svg">
<g filter="url(#filter0_ddi)">
<path fill-rule="evenodd" clip-rule="evenodd" d="M163.4 61.0118C163.4 40.5707 179.971 24 200.412 24H366.388C386.829 24 403.4 40.5707 403.4 61.0118V471.988C403.4 492.429 386.829 509 366.388 509H200.412C179.971 509 163.4 492.429 163.4 471.988V61.0118Z" fill="url(#paint0_linear)"/>
</g>
<path fill-rule="evenodd" clip-rule="evenodd" d="M177.945 284.421V155.611V472.037C177.945 483.695 187.548 493.319 199.204 493.319H366.477C378.133 493.319 387.736 483.695 387.736 472.037V279.941V59.8429C387.736 48.1849 378.133 38.5612 366.477 38.5612H344.667C342.809 38.5612 341.302 40.0676 341.302 41.9259V42.4815C341.488 50.0112 335.486 56.026 327.876 55.9226H237.246C229.525 56.026 223.523 50.0112 223.82 42.4815V41.9259C223.82 40.0676 222.313 38.5612 220.455 38.5612H218.225H212.631H207.596C207.437 38.5612 204.756 38.5612 199.204 38.5612C187.548 38.5612 177.945 48.1849 177.945 59.8429V158.411" fill="#FBFBFB"/>
<mask id="mask0" mask-type="alpha" maskUnits="userSpaceOnUse" x="177" y="38" width="211" height="456">
<path fill-rule="evenodd" clip-rule="evenodd" d="M177.945 284.421V155.611V472.037C177.945 483.695 187.548 493.319 199.204 493.319H366.477C378.133 493.319 387.736 483.695 387.736 472.037V279.941V59.8429C387.736 48.1849 378.133 38.5612 366.477 38.5612H344.667C342.809 38.5612 341.302 40.0676 341.302 41.9259V42.4815C341.488 50.0112 335.486 56.026 327.876 55.9226H237.246C229.525 56.026 223.523 50.0112 223.82 42.4815V41.9259C223.82 40.0676 222.313 38.5612 220.455 38.5612H218.225H212.631H207.596C207.437 38.5612 204.756 38.5612 199.204 38.5612C187.548 38.5612 177.945 48.1849 177.945 59.8429V158.411" fill="white"/>
</mask>
<g mask="url(#mask0)">
<rect x="177.945" y="38.5612" width="209.79" height="454.758" fill="#F8F9F9"/>
</g>
<g clip-path="url(#clip0)">
<g filter="url(#filter1_d)">
<rect x="260" y="258" width="240" height="150" rx="9.6" fill="#C964F2"/>
</g>
<path fill-rule="evenodd" clip-rule="evenodd" d="M392.814 296C392.835 295.909 392.87 295.746 392.87 295.648V288.168C392.87 287.479 392.313 286.922 391.624 286.922C390.934 286.922 390.376 287.479 390.376 288.168V293.775C387.628 291.79 384.265 290.662 380.627 290.662H380.518C377.777 290.662 375.2 291.316 372.922 292.506V286.922C372.922 286.232 372.364 285.675 371.675 285.675C370.987 285.675 370.429 286.232 370.429 286.922V294.111C366.449 297.191 363.884 302.163 363.92 307.573C363.978 316.748 371.461 324.324 380.623 324.324H380.732C389.944 324.324 397.391 316.569 397.331 307.357C397.304 302.993 395.583 298.962 392.814 296ZM380.715 321.831H380.623C372.829 321.831 366.463 315.39 366.413 307.584C366.361 299.748 372.698 293.155 380.534 293.155H380.626C388.421 293.155 394.786 299.596 394.836 307.402C394.887 315.238 388.552 321.831 380.715 321.831Z" fill="white"/>
<path fill-rule="evenodd" clip-rule="evenodd" d="M371.675 278.194C370.987 278.194 370.429 278.751 370.429 279.441V281.934C370.429 282.624 370.987 283.181 371.675 283.181C372.364 283.181 372.922 282.624 372.922 281.934V279.441C372.922 278.751 372.364 278.194 371.675 278.194Z" fill="white"/>
<path fill-rule="evenodd" clip-rule="evenodd" d="M391.624 279.441C390.934 279.441 390.376 279.999 390.376 280.688V283.181C390.376 283.87 390.934 284.428 391.624 284.428C392.313 284.428 392.87 283.87 392.87 283.181V280.688C392.87 279.999 392.313 279.441 391.624 279.441Z" fill="white"/>
<path fill-rule="evenodd" clip-rule="evenodd" d="M357.961 306.87C357.273 306.87 356.714 307.426 356.714 308.116V318.09C356.714 318.78 357.273 319.337 357.961 319.337C358.649 319.337 359.208 318.78 359.208 318.09V308.116C359.208 307.426 358.649 306.87 357.961 306.87Z" fill="white"/>
<path fill-rule="evenodd" clip-rule="evenodd" d="M357.961 299.389C357.273 299.389 356.714 299.946 356.714 300.636V303.129C356.714 303.819 357.273 304.376 357.961 304.376C358.649 304.376 359.208 303.819 359.208 303.129V300.636C359.208 299.946 358.649 299.389 357.961 299.389Z" fill="white"/>
<path fill-rule="evenodd" clip-rule="evenodd" d="M405.338 295.648C404.648 295.648 404.091 296.206 404.091 296.896V306.87C404.091 307.559 404.648 308.116 405.338 308.116C406.027 308.116 406.584 307.559 406.584 306.87V296.896C406.584 296.206 406.027 295.648 405.338 295.648Z" fill="white"/>
<path fill-rule="evenodd" clip-rule="evenodd" d="M405.338 288.168C404.648 288.168 404.091 288.725 404.091 289.415V291.908C404.091 292.598 404.648 293.155 405.338 293.155C406.027 293.155 406.584 292.598 406.584 291.908V289.415C406.584 288.725 406.027 288.168 405.338 288.168Z" fill="white"/>
<path fill-rule="evenodd" clip-rule="evenodd" d="M375.718 313.879C376.246 314.322 376.314 315.109 375.872 315.636C375.429 316.164 374.643 316.232 374.115 315.79C373.588 315.347 373.519 314.561 373.962 314.034C374.404 313.506 375.191 313.437 375.718 313.879Z" fill="white"/>
<path fill-rule="evenodd" clip-rule="evenodd" d="M386.937 300.509C387.465 300.951 387.534 301.738 387.091 302.265C386.649 302.793 385.862 302.862 385.334 302.419C384.807 301.977 384.739 301.19 385.181 300.662C385.624 300.135 386.41 300.067 386.937 300.509Z" fill="white"/>
<path fill-rule="evenodd" clip-rule="evenodd" d="M372.718 309.379C373.246 309.822 373.314 310.609 372.872 311.136C372.429 311.664 371.643 311.732 371.115 311.29C370.588 310.847 370.519 310.061 370.962 309.534C371.404 309.006 372.191 308.937 372.718 309.379Z" fill="white"/>
<path fill-rule="evenodd" clip-rule="evenodd" d="M383.937 296.009C384.465 296.451 384.534 297.238 384.091 297.765C383.649 298.293 382.862 298.362 382.334 297.919C381.807 297.477 381.739 296.69 382.181 296.162C382.624 295.635 383.41 295.567 383.937 296.009Z" fill="white"/>
<path fill-rule="evenodd" clip-rule="evenodd" d="M380.968 317.629C381.496 318.072 381.564 318.859 381.122 319.386C380.679 319.914 379.893 319.982 379.365 319.54C378.838 319.097 378.769 318.311 379.212 317.784C379.654 317.256 380.441 317.187 380.968 317.629Z" fill="white"/>
<path fill-rule="evenodd" clip-rule="evenodd" d="M392.187 304.259C392.715 304.701 392.784 305.488 392.341 306.015C391.899 306.543 391.112 306.612 390.584 306.169C390.057 305.727 389.989 304.94 390.431 304.412C390.874 303.885 391.66 303.817 392.187 304.259Z" fill="white"/>
<path fill-rule="evenodd" clip-rule="evenodd" d="M416.559 326.817H402.844C401.221 326.817 399.85 327.864 399.333 329.311H393.092C392.417 329.311 391.876 329.848 391.853 330.518L381.451 328.158C380.701 327.988 379.922 328.047 379.204 328.332L369.442 332.205C368.182 332.705 367.258 333.72 366.878 334.947L347.814 329.355C346.652 329.017 345.433 329.233 344.47 329.953C343.536 330.654 343 331.716 343 332.869V335.574C343 336.81 343.629 337.955 344.679 338.634L358.53 347.598C358.651 347.676 358.788 347.733 358.93 347.766L379.551 352.474C379.83 352.539 380.117 352.57 380.403 352.57C380.69 352.57 380.975 352.539 381.254 352.474L392.107 349.985C392.333 350.293 392.681 350.506 393.093 350.506H399.335C399.85 351.953 401.222 352.999 402.846 352.999H416.559C417.249 352.999 417.807 352.442 417.807 351.752V328.064C417.805 327.375 417.248 326.817 416.559 326.817ZM391.544 347.556L380.696 350.045C380.504 350.09 380.301 350.09 380.108 350.045L359.7 345.384L346.033 336.54C345.695 336.32 345.494 335.96 345.494 335.572V332.868C345.494 332.374 345.787 332.082 345.963 331.951C346.293 331.705 346.709 331.627 347.111 331.748L366.906 337.562C367.486 339.28 369.148 340.532 371.102 340.532H380.403C381.09 340.532 381.649 339.974 381.649 339.285C381.649 338.595 381.09 338.038 380.403 338.038H371.102C370.044 338.038 369.181 337.22 369.181 336.218C369.181 335.478 369.646 334.813 370.364 334.527L380.126 330.653C380.373 330.554 380.642 330.533 380.901 330.592L391.618 333.023L391.544 347.556ZM394.116 348.012H399.104V331.805H394.116V348.012ZM415.311 350.506H402.844C402.156 350.506 401.598 349.947 401.598 349.259V330.558C401.598 329.869 402.156 329.311 402.844 329.311H415.311V350.506Z" fill="white"/>
<path fill-rule="evenodd" clip-rule="evenodd" d="M410.548 345.519H406.808C406.118 345.519 405.561 346.076 405.561 346.766C405.561 347.455 406.118 348.012 406.808 348.012H410.548C411.237 348.012 411.794 347.455 411.794 346.766C411.794 346.076 411.237 345.519 410.548 345.519Z" fill="white"/>
<path d="M330.957 387H322.073V371.295H330.957V373.465H324.641V377.74H330.56V379.889H324.641V384.819H330.957V387ZM341.527 387L341.022 385.346H340.937C340.364 386.069 339.787 386.563 339.207 386.828C338.627 387.086 337.882 387.215 336.973 387.215C335.805 387.215 334.892 386.9 334.233 386.27C333.582 385.639 333.256 384.748 333.256 383.595C333.256 382.37 333.711 381.446 334.62 380.823C335.53 380.2 336.915 379.86 338.777 379.803L340.829 379.738V379.104C340.829 378.345 340.65 377.78 340.292 377.407C339.941 377.028 339.393 376.838 338.648 376.838C338.04 376.838 337.456 376.927 336.897 377.106C336.339 377.285 335.802 377.497 335.286 377.74L334.47 375.936C335.114 375.599 335.82 375.345 336.586 375.173C337.352 374.994 338.076 374.904 338.756 374.904C340.267 374.904 341.406 375.234 342.172 375.893C342.945 376.551 343.332 377.586 343.332 378.997V387H341.527ZM337.768 385.281C338.684 385.281 339.418 385.027 339.97 384.519C340.528 384.003 340.808 383.283 340.808 382.359V381.328L339.282 381.393C338.093 381.436 337.227 381.636 336.683 381.994C336.146 382.345 335.877 382.886 335.877 383.616C335.877 384.146 336.035 384.558 336.35 384.852C336.665 385.138 337.137 385.281 337.768 385.281ZM352.882 374.904C353.39 374.904 353.809 374.94 354.139 375.012L353.892 377.364C353.534 377.278 353.161 377.235 352.774 377.235C351.765 377.235 350.945 377.565 350.314 378.224C349.691 378.882 349.38 379.738 349.38 380.791V387H346.855V375.119H348.832L349.165 377.214H349.294C349.688 376.505 350.2 375.943 350.83 375.527C351.467 375.112 352.151 374.904 352.882 374.904ZM366.804 387H364.269V379.695C364.269 378.779 364.082 378.095 363.71 377.644C363.345 377.192 362.761 376.967 361.959 376.967C360.892 376.967 360.111 377.282 359.617 377.912C359.123 378.542 358.876 379.599 358.876 381.081V387H356.352V375.119H358.328L358.683 376.677H358.812C359.17 376.111 359.678 375.674 360.337 375.366C360.996 375.058 361.726 374.904 362.528 374.904C365.379 374.904 366.804 376.354 366.804 379.255V387ZM386.698 376.043C386.698 377.683 386.161 378.94 385.087 379.813C384.013 380.687 382.484 381.124 380.5 381.124H378.867V387H376.3V371.295H380.822C382.785 371.295 384.253 371.696 385.227 372.498C386.208 373.3 386.698 374.482 386.698 376.043ZM378.867 378.965H380.231C381.549 378.965 382.516 378.736 383.132 378.277C383.748 377.819 384.056 377.103 384.056 376.129C384.056 375.227 383.78 374.553 383.229 374.109C382.677 373.665 381.818 373.443 380.65 373.443H378.867V378.965ZM400.104 381.038C400.104 382.979 399.607 384.493 398.611 385.582C397.616 386.671 396.23 387.215 394.454 387.215C393.344 387.215 392.363 386.964 391.511 386.463C390.659 385.962 390.003 385.242 389.545 384.304C389.087 383.366 388.857 382.277 388.857 381.038C388.857 379.112 389.352 377.608 390.34 376.526C391.328 375.445 392.721 374.904 394.519 374.904C396.237 374.904 397.598 375.459 398.601 376.569C399.603 377.672 400.104 379.162 400.104 381.038ZM391.457 381.038C391.457 383.781 392.47 385.152 394.497 385.152C396.502 385.152 397.505 383.781 397.505 381.038C397.505 378.324 396.495 376.967 394.476 376.967C393.416 376.967 392.646 377.318 392.166 378.02C391.693 378.721 391.457 379.728 391.457 381.038ZM405.54 387H403.016V375.119H405.54V387ZM402.865 371.972C402.865 371.521 402.987 371.173 403.23 370.93C403.481 370.686 403.836 370.564 404.294 370.564C404.738 370.564 405.082 370.686 405.325 370.93C405.576 371.173 405.701 371.521 405.701 371.972C405.701 372.401 405.576 372.742 405.325 372.992C405.082 373.236 404.738 373.357 404.294 373.357C403.836 373.357 403.481 373.236 403.23 372.992C402.987 372.742 402.865 372.401 402.865 371.972ZM419.612 387H417.077V379.695C417.077 378.779 416.891 378.095 416.519 377.644C416.153 377.192 415.57 376.967 414.768 376.967C413.701 376.967 412.92 377.282 412.426 377.912C411.932 378.542 411.685 379.599 411.685 381.081V387H409.16V375.119H411.137L411.491 376.677H411.62C411.978 376.111 412.487 375.674 413.146 375.366C413.804 375.058 414.535 374.904 415.337 374.904C418.187 374.904 419.612 376.354 419.612 379.255V387ZM427.551 385.174C428.167 385.174 428.783 385.077 429.398 384.884V386.785C429.119 386.907 428.757 387.007 428.313 387.086C427.877 387.172 427.422 387.215 426.949 387.215C424.557 387.215 423.361 385.954 423.361 383.434V377.031H421.739V375.914L423.479 374.99L424.339 372.477H425.896V375.119H429.28V377.031H425.896V383.391C425.896 383.999 426.047 384.451 426.348 384.744C426.656 385.031 427.057 385.174 427.551 385.174ZM439.765 383.616C439.765 384.776 439.342 385.668 438.497 386.291C437.652 386.907 436.442 387.215 434.866 387.215C433.284 387.215 432.012 386.975 431.053 386.495V384.314C432.449 384.959 433.749 385.281 434.952 385.281C436.506 385.281 437.283 384.812 437.283 383.874C437.283 383.573 437.197 383.323 437.025 383.122C436.854 382.922 436.571 382.714 436.177 382.499C435.783 382.284 435.235 382.041 434.533 381.769C433.165 381.239 432.238 380.709 431.751 380.179C431.271 379.649 431.031 378.961 431.031 378.116C431.031 377.099 431.439 376.312 432.256 375.753C433.079 375.187 434.197 374.904 435.607 374.904C437.004 374.904 438.325 375.187 439.571 375.753L438.755 377.654C437.473 377.124 436.395 376.859 435.521 376.859C434.189 376.859 433.523 377.239 433.523 377.998C433.523 378.37 433.695 378.686 434.039 378.943C434.39 379.201 435.149 379.556 436.316 380.007C437.298 380.386 438.01 380.734 438.454 381.049C438.898 381.364 439.228 381.729 439.442 382.145C439.657 382.553 439.765 383.043 439.765 383.616Z" fill="white"/>
</g>
<g clip-path="url(#clip1)">
<g filter="url(#filter2_d)">
<rect y="117" width="240" height="150" rx="9.6" fill="#F28964"/>
</g>
<path d="M78.6406 237.6H80.4238C81.6198 237.6 82.4863 237.378 83.0234 236.934C83.5605 236.49 83.8291 235.831 83.8291 234.957C83.8291 234.069 83.5391 233.432 82.959 233.045C82.3789 232.658 81.5052 232.465 80.3379 232.465H78.6406V237.6ZM78.6406 239.727V246H76.0732V230.295H80.5098C82.5365 230.295 84.0368 230.674 85.0107 231.434C85.9847 232.193 86.4717 233.339 86.4717 234.871C86.4717 236.826 85.4548 238.219 83.4209 239.05L87.8574 246H84.9355L81.1758 239.727H78.6406ZM95.0654 246.215C93.2178 246.215 91.7712 245.678 90.7256 244.604C89.6872 243.522 89.168 242.036 89.168 240.146C89.168 238.205 89.6514 236.679 90.6182 235.569C91.585 234.459 92.9134 233.904 94.6035 233.904C96.1719 233.904 97.4108 234.381 98.3203 235.333C99.2298 236.285 99.6846 237.596 99.6846 239.265V240.629H91.7676C91.8034 241.782 92.1149 242.67 92.7021 243.293C93.2894 243.909 94.1165 244.217 95.1836 244.217C95.8854 244.217 96.5371 244.152 97.1387 244.023C97.7474 243.887 98.3991 243.665 99.0938 243.357V245.409C98.4779 245.703 97.8548 245.91 97.2246 246.032C96.5944 246.154 95.8747 246.215 95.0654 246.215ZM94.6035 235.816C93.8014 235.816 93.1569 236.071 92.6699 236.579C92.1901 237.088 91.9036 237.829 91.8105 238.803H97.2031C97.1888 237.822 96.9525 237.08 96.4941 236.579C96.0358 236.071 95.4056 235.816 94.6035 235.816ZM110.534 242.616C110.534 243.776 110.112 244.668 109.267 245.291C108.422 245.907 107.211 246.215 105.636 246.215C104.053 246.215 102.782 245.975 101.822 245.495V243.314C103.219 243.959 104.519 244.281 105.722 244.281C107.276 244.281 108.053 243.812 108.053 242.874C108.053 242.573 107.967 242.323 107.795 242.122C107.623 241.922 107.34 241.714 106.946 241.499C106.552 241.284 106.005 241.041 105.303 240.769C103.935 240.239 103.007 239.709 102.521 239.179C102.041 238.649 101.801 237.961 101.801 237.116C101.801 236.099 102.209 235.312 103.025 234.753C103.849 234.187 104.966 233.904 106.377 233.904C107.773 233.904 109.095 234.187 110.341 234.753L109.524 236.654C108.243 236.124 107.165 235.859 106.291 235.859C104.959 235.859 104.293 236.239 104.293 236.998C104.293 237.37 104.465 237.686 104.809 237.943C105.16 238.201 105.919 238.556 107.086 239.007C108.067 239.386 108.78 239.734 109.224 240.049C109.668 240.364 109.997 240.729 110.212 241.145C110.427 241.553 110.534 242.043 110.534 242.616ZM119.3 246.215C117.796 246.215 116.629 245.674 115.798 244.593H115.647C115.748 245.595 115.798 246.204 115.798 246.419V251.285H113.273V234.119H115.314C115.372 234.341 115.49 234.871 115.669 235.709H115.798C116.586 234.506 117.767 233.904 119.343 233.904C120.825 233.904 121.978 234.441 122.802 235.516C123.632 236.59 124.048 238.097 124.048 240.038C124.048 241.979 123.625 243.493 122.78 244.582C121.942 245.671 120.782 246.215 119.3 246.215ZM118.688 235.967C117.685 235.967 116.951 236.26 116.485 236.848C116.027 237.435 115.798 238.373 115.798 239.662V240.038C115.798 241.485 116.027 242.534 116.485 243.186C116.944 243.83 117.692 244.152 118.73 244.152C119.604 244.152 120.277 243.794 120.75 243.078C121.223 242.362 121.459 241.341 121.459 240.017C121.459 238.685 121.223 237.678 120.75 236.998C120.285 236.311 119.597 235.967 118.688 235.967ZM137.519 240.038C137.519 241.979 137.021 243.493 136.025 244.582C135.03 245.671 133.644 246.215 131.868 246.215C130.758 246.215 129.777 245.964 128.925 245.463C128.073 244.962 127.417 244.242 126.959 243.304C126.501 242.366 126.271 241.277 126.271 240.038C126.271 238.112 126.766 236.608 127.754 235.526C128.742 234.445 130.135 233.904 131.933 233.904C133.651 233.904 135.012 234.459 136.015 235.569C137.017 236.672 137.519 238.162 137.519 240.038ZM128.871 240.038C128.871 242.781 129.884 244.152 131.911 244.152C133.916 244.152 134.919 242.781 134.919 240.038C134.919 237.324 133.909 235.967 131.89 235.967C130.83 235.967 130.06 236.318 129.58 237.02C129.107 237.721 128.871 238.728 128.871 240.038ZM150.882 246H148.347V238.695C148.347 237.779 148.16 237.095 147.788 236.644C147.423 236.192 146.839 235.967 146.037 235.967C144.97 235.967 144.189 236.282 143.695 236.912C143.201 237.542 142.954 238.599 142.954 240.081V246H140.43V234.119H142.406L142.761 235.677H142.89C143.248 235.111 143.756 234.674 144.415 234.366C145.074 234.058 145.804 233.904 146.606 233.904C149.457 233.904 150.882 235.354 150.882 238.255V246ZM158.401 246.215C156.919 246.215 155.762 245.678 154.932 244.604C154.101 243.529 153.686 242.022 153.686 240.081C153.686 238.133 154.104 236.618 154.942 235.537C155.787 234.449 156.955 233.904 158.444 233.904C160.006 233.904 161.194 234.481 162.011 235.634H162.14C162.018 234.782 161.957 234.108 161.957 233.614V229.285H164.492V246H162.516L162.075 244.442H161.957C161.148 245.624 159.963 246.215 158.401 246.215ZM159.078 244.174C160.117 244.174 160.872 243.884 161.345 243.304C161.817 242.716 162.061 241.768 162.075 240.457V240.103C162.075 238.606 161.832 237.542 161.345 236.912C160.858 236.282 160.095 235.967 159.057 235.967C158.169 235.967 157.485 236.328 157.005 237.052C156.525 237.768 156.285 238.792 156.285 240.124C156.285 241.442 156.518 242.448 156.983 243.143C157.449 243.83 158.147 244.174 159.078 244.174Z" fill="white"/>
<path fill-rule="evenodd" clip-rule="evenodd" d="M97.509 146.686H116.854V144.274H97.509V143.068C97.509 141.073 99.1362 139.45 101.136 139.45H126.526C127.86 139.45 128.944 140.531 128.944 141.862H131.363C131.363 139.201 129.194 137.038 126.526 137.038H101.136C97.8026 137.038 95.0907 139.743 95.0907 143.068V149.098H97.509V146.686Z" fill="white"/>
<path fill-rule="evenodd" clip-rule="evenodd" d="M97.509 194.927V191.309H102.345V188.897H95.0907V194.927C95.0907 198.252 97.8026 200.957 101.136 200.957H104.763V198.545H101.136C99.1362 198.545 97.509 196.922 97.509 194.927Z" fill="white"/>
<path fill-rule="evenodd" clip-rule="evenodd" d="M105.314 168.134C106.501 167.117 107.181 165.641 107.181 164.083C107.181 161.14 104.782 158.746 101.831 158.746H101.642C100.211 158.746 98.869 159.301 97.858 160.31L97.509 160.659L97.1584 160.31C96.149 159.301 94.8051 158.746 93.3765 158.746H93.1868C90.2365 158.746 87.8367 161.14 87.8367 164.083C87.8367 165.641 88.517 167.119 89.7043 168.135L97.509 174.807L105.314 168.134ZM90.2541 164.083C90.2541 162.471 91.5699 161.158 93.1868 161.158H93.3765C94.1593 161.158 94.8959 161.462 95.4487 162.014L97.509 164.07L99.5694 162.014C100.121 161.462 100.858 161.158 101.642 161.158H101.831C103.448 161.158 104.763 162.471 104.763 164.083C104.763 164.937 104.39 165.747 103.739 166.303L97.509 171.63L91.2784 166.305C90.6283 165.747 90.2541 164.937 90.2541 164.083Z" fill="white"/>
<path fill-rule="evenodd" clip-rule="evenodd" d="M112.018 165.983C112.018 158.002 105.509 151.51 97.509 151.51C89.5088 151.51 83 158.002 83 165.983C83 173.963 89.5088 180.454 97.509 180.454C105.509 180.454 112.018 173.963 112.018 165.983ZM85.4183 165.983C85.4183 159.332 90.8423 153.923 97.509 153.923C104.176 153.923 109.6 159.332 109.6 165.983C109.6 172.633 104.176 178.043 97.509 178.043C90.8423 178.043 85.4183 172.633 85.4183 165.983Z" fill="white"/>
<path fill-rule="evenodd" clip-rule="evenodd" d="M119.272 144.273V158.746H121.69V146.686H155.544V176.836H149.499V179.249H157.962V144.273H119.272Z" fill="white"/>
<path fill-rule="evenodd" clip-rule="evenodd" d="M148.29 158.746C148.29 153.426 143.95 149.098 138.617 149.098C133.284 149.098 128.944 153.426 128.944 158.746C128.944 161.678 130.289 164.446 132.571 166.272V167.188H130.154V169.601H142.245V172.013H141.035V174.424H144.662V169.601H147.08V167.188H144.662V166.272C146.945 164.446 148.29 161.678 148.29 158.746ZM138.617 159.953C137.951 159.953 137.408 159.412 137.408 158.746C137.408 158.081 137.951 157.54 138.617 157.54C139.283 157.54 139.826 158.081 139.826 158.746C139.826 159.412 139.283 159.953 138.617 159.953ZM142.76 164.68L142.245 165.041V167.188H139.826V162.143C141.23 161.643 142.245 160.316 142.245 158.746C142.245 156.751 140.617 155.128 138.617 155.128C136.617 155.128 134.99 156.751 134.99 158.746C134.99 160.316 136.004 161.643 137.408 162.143V167.188H134.99V165.041L134.474 164.68C132.526 163.323 131.363 161.105 131.363 158.746C131.363 154.756 134.616 151.51 138.617 151.51C142.618 151.51 145.872 154.756 145.872 158.746C145.872 161.105 144.709 163.323 142.76 164.68Z" fill="white"/>
<path fill-rule="evenodd" clip-rule="evenodd" d="M142.245 176.837C140.794 176.837 139.505 177.49 138.617 178.503C137.73 177.49 136.441 176.837 134.99 176.837C133.539 176.837 132.25 177.49 131.363 178.503C130.475 177.49 129.186 176.837 127.736 176.837C126.85 176.837 126.032 177.093 125.317 177.507V165.983C125.317 163.322 123.149 161.158 120.481 161.158C117.814 161.158 115.645 163.322 115.645 165.983V190.597C115.645 190.78 115.572 190.953 115.441 191.081C115.309 191.211 115.104 191.258 114.952 191.277C114.649 191.272 114.389 191.073 114.306 190.782L112.651 184.935C112.105 183.007 110.32 181.661 108.312 181.661H108.064C105.577 181.661 103.554 183.679 103.554 186.158C103.554 186.456 103.583 186.754 103.642 187.04L105.201 194.814C105.767 197.641 107.31 200.219 109.544 202.078L113.227 205.141V211.812H142.245V210.398C142.245 208.521 142.977 206.755 144.308 205.428C146.097 203.645 147.08 201.276 147.08 198.753V181.661C147.08 179 144.912 176.837 142.245 176.837ZM144.662 198.753C144.662 200.63 143.93 202.396 142.599 203.723C141.048 205.268 140.103 207.255 139.878 209.4H115.645V204.01L111.092 200.225C109.28 198.719 108.03 196.63 107.571 194.341L106.011 186.565C105.986 186.431 105.973 186.296 105.973 186.158C105.973 185.007 106.91 184.073 108.062 184.073H108.31C109.242 184.073 110.07 184.697 110.324 185.591L111.979 191.439C112.355 192.762 113.533 193.667 114.911 193.69C115.766 193.702 116.539 193.389 117.136 192.803C117.734 192.216 118.063 191.433 118.063 190.597V165.983C118.063 164.652 119.147 163.571 120.481 163.571C121.815 163.571 122.899 164.652 122.899 165.983V186.485H125.317V181.661C125.317 180.331 126.402 179.249 127.736 179.249C129.069 179.249 130.154 180.331 130.154 181.661V186.485H132.571V181.661C132.571 180.331 133.656 179.249 134.99 179.249C136.323 179.249 137.408 180.331 137.408 181.661V186.485H139.826V181.661C139.826 180.331 140.91 179.249 142.245 179.249C143.578 179.249 144.662 180.331 144.662 181.661V198.753Z" fill="white"/>
<path fill-rule="evenodd" clip-rule="evenodd" d="M95.0907 186.485H97.509V182.867H95.0907V186.485Z" fill="white"/>
</g>
<g clip-path="url(#clip2)">
<g filter="url(#filter3_d)">
<rect x="321" y="74" width="240" height="150" rx="9.6" fill="#4A90E2"/>
</g>
<path d="M428.021 187.295H430.686L425.186 203H422.479L417 187.295H419.643L422.919 197.06C423.091 197.525 423.273 198.127 423.467 198.864C423.66 199.595 423.785 200.139 423.843 200.497C423.936 199.953 424.079 199.323 424.272 198.606C424.466 197.89 424.623 197.36 424.745 197.017L428.021 187.295ZM443.028 197.038C443.028 198.979 442.531 200.493 441.535 201.582C440.54 202.671 439.154 203.215 437.378 203.215C436.268 203.215 435.287 202.964 434.435 202.463C433.582 201.962 432.927 201.242 432.469 200.304C432.01 199.366 431.781 198.277 431.781 197.038C431.781 195.112 432.275 193.608 433.264 192.526C434.252 191.445 435.645 190.904 437.442 190.904C439.161 190.904 440.522 191.459 441.524 192.569C442.527 193.672 443.028 195.162 443.028 197.038ZM434.381 197.038C434.381 199.781 435.394 201.152 437.421 201.152C439.426 201.152 440.429 199.781 440.429 197.038C440.429 194.324 439.419 192.967 437.399 192.967C436.34 192.967 435.57 193.318 435.09 194.02C434.617 194.721 434.381 195.728 434.381 197.038ZM450.365 201.174C450.981 201.174 451.597 201.077 452.213 200.884V202.785C451.934 202.907 451.572 203.007 451.128 203.086C450.691 203.172 450.236 203.215 449.764 203.215C447.372 203.215 446.176 201.954 446.176 199.434V193.031H444.554V191.914L446.294 190.99L447.153 188.477H448.711V191.119H452.095V193.031H448.711V199.391C448.711 199.999 448.861 200.451 449.162 200.744C449.47 201.031 449.871 201.174 450.365 201.174ZM459.786 203.215C457.938 203.215 456.492 202.678 455.446 201.604C454.408 200.522 453.889 199.036 453.889 197.146C453.889 195.205 454.372 193.679 455.339 192.569C456.306 191.459 457.634 190.904 459.324 190.904C460.893 190.904 462.132 191.381 463.041 192.333C463.951 193.285 464.405 194.596 464.405 196.265V197.629H456.488C456.524 198.782 456.836 199.67 457.423 200.293C458.01 200.909 458.837 201.217 459.904 201.217C460.606 201.217 461.258 201.152 461.859 201.023C462.468 200.887 463.12 200.665 463.814 200.357V202.409C463.199 202.703 462.576 202.91 461.945 203.032C461.315 203.154 460.595 203.215 459.786 203.215ZM459.324 192.816C458.522 192.816 457.878 193.071 457.391 193.579C456.911 194.088 456.624 194.829 456.531 195.803H461.924C461.91 194.822 461.673 194.08 461.215 193.579C460.757 193.071 460.126 192.816 459.324 192.816Z" fill="white"/>
<path fill-rule="evenodd" clip-rule="evenodd" d="M426.39 106.189C425.582 106.189 424.927 106.844 424.927 107.649C424.927 108.456 425.582 109.109 426.39 109.109C427.198 109.109 427.853 108.456 427.853 107.649C427.853 106.844 427.198 106.189 426.39 106.189Z" fill="white"/>
<path fill-rule="evenodd" clip-rule="evenodd" d="M426.39 147.941C425.582 147.941 424.927 148.596 424.927 149.401C424.927 150.207 425.582 150.861 426.39 150.861C427.198 150.861 427.853 150.207 427.853 149.401C427.853 148.596 427.198 147.941 426.39 147.941Z" fill="white"/>
<path fill-rule="evenodd" clip-rule="evenodd" d="M414.683 106.189C413.875 106.189 413.219 106.844 413.219 107.649C413.219 108.456 413.875 109.109 414.683 109.109C415.491 109.109 416.146 108.456 416.146 107.649C416.146 106.844 415.491 106.189 414.683 106.189Z" fill="white"/>
<mask id="mask1" mask-type="alpha" maskUnits="userSpaceOnUse" x="404" y="94" width="34" height="75">
<path fill-rule="evenodd" clip-rule="evenodd" d="M404.011 94.073H437.073V168.818H404.011V94.073Z" fill="white"/>
</mask>
<g mask="url(#mask1)">
<path fill-rule="evenodd" clip-rule="evenodd" d="M414.683 147.941C413.875 147.941 413.219 148.596 413.219 149.401C413.219 150.207 413.875 150.861 414.683 150.861C415.491 150.861 416.146 150.207 416.146 149.401C416.146 148.596 415.491 147.941 414.683 147.941Z" fill="white"/>
<path fill-rule="evenodd" clip-rule="evenodd" d="M432.139 98.9951C429.003 95.8672 424.774 94.073 420.536 94.073C416.299 94.073 412.07 95.8672 408.934 98.9951C405.799 102.124 404 106.342 404 110.569C404 114.797 405.799 119.015 408.934 122.143C412.07 125.272 416.299 127.066 420.536 127.066C424.774 127.066 429.003 125.272 432.139 122.143C435.275 119.015 437.073 114.797 437.073 110.569C437.073 106.342 435.275 102.124 432.139 98.9951ZM420.536 124.146C413.286 124.146 406.927 117.802 406.927 110.569C406.927 103.337 413.286 96.9927 420.536 96.9927C427.787 96.9927 434.147 103.337 434.147 110.569C434.147 117.802 427.787 124.146 420.536 124.146Z" fill="white"/>
<path fill-rule="evenodd" clip-rule="evenodd" d="M427.78 115.731C427.21 115.161 426.283 115.161 425.711 115.731C422.858 118.576 418.215 118.576 415.361 115.731C414.79 115.161 413.864 115.161 413.292 115.731C412.721 116.301 412.721 117.226 413.293 117.796C415.29 119.787 417.913 120.783 420.536 120.783C423.16 120.783 425.783 119.787 427.78 117.796C428.352 117.226 428.352 116.301 427.78 115.731Z" fill="white"/>
<path fill-rule="evenodd" clip-rule="evenodd" d="M432.139 140.747C429.003 137.619 424.774 135.825 420.536 135.825C416.299 135.825 412.07 137.619 408.934 140.747C405.799 143.875 404 148.094 404 152.321C404 156.549 405.799 160.767 408.934 163.895C412.07 167.024 416.299 168.818 420.536 168.818C424.774 168.818 429.003 167.024 432.139 163.895C435.275 160.767 437.073 156.549 437.073 152.321C437.073 148.094 435.275 143.875 432.139 140.747ZM420.536 165.898C413.286 165.898 406.927 159.553 406.927 152.321C406.927 145.089 413.286 138.745 420.536 138.745C427.787 138.745 434.147 145.089 434.147 152.321C434.147 159.553 427.787 165.898 420.536 165.898Z" fill="white"/>
</g>
<path fill-rule="evenodd" clip-rule="evenodd" d="M427.78 156.686C423.786 152.703 417.287 152.703 413.293 156.686C412.721 157.256 412.721 158.18 413.292 158.75C413.864 159.321 414.79 159.321 415.362 158.751C418.215 155.906 422.858 155.906 425.711 158.751C425.997 159.036 426.371 159.178 426.746 159.178C427.12 159.178 427.495 159.036 427.78 158.75C428.352 158.18 428.352 157.256 427.78 156.686Z" fill="white"/>
<path fill-rule="evenodd" clip-rule="evenodd" d="M474.537 94.073H450.683C448.262 94.073 446.292 96.0376 446.292 98.4526V122.686C446.292 125.101 448.262 127.066 450.683 127.066H474.537C476.957 127.066 478.927 125.101 478.927 122.686V98.4526C478.927 96.0376 476.957 94.073 474.537 94.073ZM476 122.686C476 123.491 475.344 124.146 474.537 124.146H450.683C449.876 124.146 449.219 123.491 449.219 122.686V98.4526C449.219 97.6478 449.876 96.9927 450.683 96.9927H474.537C475.344 96.9927 476 97.6478 476 98.4526V122.686Z" fill="white"/>
<path fill-rule="evenodd" clip-rule="evenodd" d="M474.537 135.825H450.683C448.262 135.825 446.292 137.789 446.292 140.205V164.438C446.292 166.853 448.262 168.818 450.683 168.818H474.537C476.957 168.818 478.927 166.853 478.927 164.438V140.205C478.927 137.789 476.957 135.825 474.537 135.825ZM476 164.438C476 165.243 475.344 165.898 474.537 165.898H450.683C449.876 165.898 449.219 165.243 449.219 164.438V140.205C449.219 139.4 449.876 138.745 450.683 138.745H474.537C475.344 138.745 476 139.4 476 140.205V164.438Z" fill="white"/>
<path fill-rule="evenodd" clip-rule="evenodd" d="M470.742 107.055C470.17 106.485 469.244 106.485 468.673 107.056L460.927 114.782L456.108 109.975C455.536 109.405 454.61 109.405 454.038 109.975C453.467 110.545 453.467 111.469 454.038 112.04L459.892 117.879C460.178 118.164 460.552 118.307 460.927 118.307C461.301 118.307 461.676 118.164 461.961 117.879L470.742 109.12C471.313 108.55 471.313 107.625 470.742 107.055Z" fill="white"/>
</g>
<defs>
<filter id="filter0_ddi" x="127.4" y="0" width="312" height="557" filterUnits="userSpaceOnUse" color-interpolation-filters="sRGB">
<feFlood flood-opacity="0" result="BackgroundImageFix"/>
<feColorMatrix in="SourceAlpha" type="matrix" values="0 0 0 0 0 0 0 0 0 0 0 0 0 0 0 0 0 0 127 0"/>
<feOffset dy="12"/>
<feGaussianBlur stdDeviation="18"/>
<feColorMatrix type="matrix" values="0 0 0 0 0 0 0 0 0 0 0 0 0 0 0 0 0 0 0.04 0"/>
<feBlend mode="normal" in2="BackgroundImageFix" result="effect1_dropShadow"/>
<feColorMatrix in="SourceAlpha" type="matrix" values="0 0 0 0 0 0 0 0 0 0 0 0 0 0 0 0 0 0 127 0"/>
<feOffset dy="6"/>
<feGaussianBlur stdDeviation="12.5"/>
<feColorMatrix type="matrix" values="0 0 0 0 0 0 0 0 0 0 0 0 0 0 0 0 0 0 0.01 0"/>
<feBlend mode="normal" in2="effect1_dropShadow" result="effect2_dropShadow"/>
<feBlend mode="normal" in="SourceGraphic" in2="effect2_dropShadow" result="shape"/>
<feColorMatrix in="SourceAlpha" type="matrix" values="0 0 0 0 0 0 0 0 0 0 0 0 0 0 0 0 0 0 127 0" result="hardAlpha"/>
<feOffset dy="-5"/>
<feGaussianBlur stdDeviation="5.5"/>
<feComposite in2="hardAlpha" operator="arithmetic" k2="-1" k3="1"/>
<feColorMatrix type="matrix" values="0 0 0 0 0 0 0 0 0 0 0 0 0 0 0 0 0 0 0.05 0"/>
<feBlend mode="normal" in2="shape" result="effect3_innerShadow"/>
</filter>
<filter id="filter1_d" x="252" y="252" width="256" height="166" filterUnits="userSpaceOnUse" color-interpolation-filters="sRGB">
<feFlood flood-opacity="0" result="BackgroundImageFix"/>
<feColorMatrix in="SourceAlpha" type="matrix" values="0 0 0 0 0 0 0 0 0 0 0 0 0 0 0 0 0 0 127 0"/>
<feOffset dy="2"/>
<feGaussianBlur stdDeviation="4"/>
<feColorMatrix type="matrix" values="0 0 0 0 0.482781 0 0 0 0 0.482781 0 0 0 0 0.482781 0 0 0 0.193501 0"/>
<feBlend mode="normal" in2="BackgroundImageFix" result="effect1_dropShadow"/>
<feBlend mode="normal" in="SourceGraphic" in2="effect1_dropShadow" result="shape"/>
</filter>
<filter id="filter2_d" x="-8" y="111" width="256" height="166" filterUnits="userSpaceOnUse" color-interpolation-filters="sRGB">
<feFlood flood-opacity="0" result="BackgroundImageFix"/>
<feColorMatrix in="SourceAlpha" type="matrix" values="0 0 0 0 0 0 0 0 0 0 0 0 0 0 0 0 0 0 127 0"/>
<feOffset dy="2"/>
<feGaussianBlur stdDeviation="4"/>
<feColorMatrix type="matrix" values="0 0 0 0 0.482781 0 0 0 0 0.482781 0 0 0 0 0.482781 0 0 0 0.193501 0"/>
<feBlend mode="normal" in2="BackgroundImageFix" result="effect1_dropShadow"/>
<feBlend mode="normal" in="SourceGraphic" in2="effect1_dropShadow" result="shape"/>
</filter>
<filter id="filter3_d" x="313" y="68" width="256" height="166" filterUnits="userSpaceOnUse" color-interpolation-filters="sRGB">
<feFlood flood-opacity="0" result="BackgroundImageFix"/>
<feColorMatrix in="SourceAlpha" type="matrix" values="0 0 0 0 0 0 0 0 0 0 0 0 0 0 0 0 0 0 127 0"/>
<feOffset dy="2"/>
<feGaussianBlur stdDeviation="4"/>
<feColorMatrix type="matrix" values="0 0 0 0 0.482781 0 0 0 0 0.482781 0 0 0 0 0.482781 0 0 0 0.193501 0"/>
<feBlend mode="normal" in2="BackgroundImageFix" result="effect1_dropShadow"/>
<feBlend mode="normal" in="SourceGraphic" in2="effect1_dropShadow" result="shape"/>
</filter>
<linearGradient id="paint0_linear" x1="223.4" y1="266.5" x2="223.4" y2="509" gradientUnits="userSpaceOnUse">
<stop stop-color="#282828"/>
<stop offset="1" stop-color="#282828"/>
</linearGradient>
<clipPath id="clip0">
<rect x="260" y="258" width="240" height="150" fill="white"/>
</clipPath>
<clipPath id="clip1">
<rect y="117" width="240" height="150" fill="white"/>
</clipPath>
<clipPath id="clip2">
<rect x="321" y="74" width="240" height="150" fill="white"/>
</clipPath>
</defs>
</svg>
