<svg width="250" height="41" viewBox="0 0 250 41" fill="none" xmlns="http://www.w3.org/2000/svg">
<path fill-rule="evenodd" clip-rule="evenodd" d="M9.632 21.3944H12.7371C14.387 21.3944 15.87 21.0919 17.1862 20.4883C18.5024 19.8848 19.1589 18.4939 19.1589 16.3185C19.1589 14.7315 18.7387 13.5473 17.8953 12.7705C17.0533 11.9952 15.7557 11.5726 14.0008 11.5026H9.632C9.77257 11.5026 9.84364 11.4494 9.84364 11.3476V21.6011C9.84364 21.4643 9.77257 21.3944 9.632 21.3944M0 37.5537V19.1673V4.76829C0 4.18303 0.264165 3.68137 0.789407 3.26637C1.31619 2.85288 1.94803 2.64614 2.68491 2.64614H14.1058C19.298 2.61117 23.2296 3.51719 25.8959 5.36572C28.5623 7.2112 30.0021 10.0174 30.2122 13.7814C30.2122 13.9197 30.2214 14.2131 30.2384 14.6615C30.2554 15.1115 30.2632 15.6451 30.2632 16.2668C30.2632 17.1303 30.2462 17.752 30.2122 18.1321C30.1071 20.4108 29.449 22.5603 28.2379 24.5806C27.0283 26.5994 25.0803 28.2579 22.3954 29.5531C19.712 30.8468 16.2114 31.4944 11.8952 31.4944V36.9837C11.8952 37.7438 11.5352 38.3822 10.8169 38.9006C10.097 39.419 9.2118 39.6774 8.15978 39.6774H2.89655C2.08706 39.6774 1.4027 39.4707 0.841931 39.0572C0.281159 38.6407 0 38.1421 0 37.5537" fill="white"/>
<path fill-rule="evenodd" clip-rule="evenodd" d="M84.2105 20.5C84.2105 16.956 85.0266 13.7165 86.6586 10.7813C88.2922 7.84608 90.5023 5.53494 93.2903 3.85091C96.0798 2.16536 99.1074 1.32258 102.372 1.32258C103.017 1.32258 103.511 1.3394 103.851 1.37458C105.823 1.51377 107.355 1.73861 108.443 2.05217L108.698 2.10418C109.071 2.13935 109.361 2.27701 109.566 2.52021C109.768 2.76494 109.87 3.07696 109.87 3.45782C109.87 3.80656 109.803 4.13694 109.667 4.44897L107.575 9.29609C107.031 10.7201 106.215 11.4313 105.127 11.4313C102.337 11.4313 100.084 12.0233 98.3677 13.2025C96.6503 14.3849 95.5348 16.1408 95.0257 18.4672C94.855 19.2672 94.7712 19.9784 94.7712 20.6025C94.7712 22.4456 95.2713 24.096 96.276 25.5551C97.2792 27.0143 98.8005 28.0039 100.841 28.5255C101.928 28.7335 102.899 28.8375 103.749 28.8375C105.892 28.8375 107.6 28.3083 108.876 27.2483C110.152 26.1884 110.975 24.8424 111.35 23.2088H108.493C107.949 23.2088 107.507 23.0268 107.168 22.6628C106.826 22.2972 106.657 21.8383 106.657 21.2816V14.4537C106.657 13.9337 106.835 13.4825 107.193 13.1001C107.549 12.7192 107.984 12.5265 108.493 12.5265H120.38C120.958 12.5265 121.434 12.7085 121.808 13.0741C122.183 13.4381 122.368 13.9 122.368 14.4537L122.268 18.2057C122.234 18.6232 122.19 19.362 122.141 20.422C122.088 21.4835 122.012 22.4624 121.91 23.3664C121.605 26.4239 120.567 29.1939 118.799 31.6779C117.029 34.1619 114.784 36.1166 112.065 37.5406C109.343 38.9662 106.486 39.6774 103.493 39.6774C100.16 39.6774 97.0142 38.8178 94.0554 37.0971C91.0982 35.3779 88.716 33.0407 86.9147 30.0872C85.1119 27.1367 84.2105 23.9384 84.2105 20.5" fill="white"/>
<path fill-rule="evenodd" clip-rule="evenodd" d="M141.614 11.6238V15.7788H156.293C156.85 15.7788 157.345 15.9926 157.777 16.4203C158.21 16.848 158.428 17.3872 158.428 18.0377V22.4999C158.428 23.0827 158.21 23.6038 157.777 24.0646C157.345 24.527 156.85 24.7589 156.293 24.7589H141.614V29.3235H157.022C157.614 29.3235 158.124 29.5389 158.56 29.9651C158.992 30.3928 159.211 30.95 159.211 31.6337V36.0447C159.211 36.6621 158.992 37.1998 158.56 37.6621C158.124 38.1244 157.614 38.3548 157.022 38.3548H132.451C131.86 38.3548 131.347 38.1244 130.914 37.6621C130.48 37.1998 130.263 36.6621 130.263 36.0447V35.8926V31.6337V9.36482V4.90111C130.263 4.25204 130.48 3.71441 130.914 3.2852C131.347 2.85751 131.86 2.64516 132.451 2.64516H157.022C157.614 2.64516 158.124 2.85751 158.56 3.2852C158.992 3.71441 159.211 4.25204 159.211 4.90111V9.36482C159.211 9.94764 158.983 10.4687 158.532 10.931C158.081 11.3934 157.577 11.6238 157.022 11.6238H141.614Z" fill="white"/>
<path fill-rule="evenodd" clip-rule="evenodd" d="M192.964 21.3505C192.964 19.8495 192.58 18.4685 191.819 17.212C191.054 15.954 190.039 14.9498 188.771 14.1993C187.506 13.4488 186.144 13.072 184.685 13.072C183.157 13.072 181.762 13.4488 180.495 14.1993C179.228 14.9498 178.231 15.954 177.502 17.212C176.773 18.4685 176.408 19.8495 176.408 21.3505C176.408 22.853 176.773 24.2417 177.502 25.5166C178.231 26.7915 179.228 27.805 180.495 28.5554C181.762 29.3059 183.157 29.6827 184.685 29.6827C186.144 29.6827 187.506 29.3059 188.771 28.5554C190.039 27.805 191.054 26.7915 191.819 25.5166C192.58 24.2417 192.964 22.853 192.964 21.3505M165.789 21.8226C165.789 18.3639 166.647 15.1682 168.364 12.2339C170.082 9.29959 172.4 6.96816 175.314 5.23958C178.231 3.50946 181.407 2.64516 184.842 2.64516C188.279 2.64516 191.462 3.50946 194.396 5.23958C197.326 6.96816 199.652 9.29959 201.371 12.2339C203.089 15.1682 203.947 18.3639 203.947 21.8226C203.947 25.2813 203.089 28.477 201.371 31.4113C199.652 34.3456 197.326 36.677 194.396 38.4056C191.462 40.1342 188.279 41 184.842 41C181.407 41 178.231 40.1342 175.314 38.4056C172.4 36.677 170.082 34.3456 168.364 31.4113C166.647 28.477 165.789 25.2813 165.789 21.8226" fill="white"/>
<path fill-rule="evenodd" clip-rule="evenodd" d="M239.509 37.9985C239.304 37.8951 237.827 36.3993 235.076 33.5078C232.325 30.6193 228.304 26.3503 223.006 20.7036C222.498 20.193 222.173 19.9385 222.039 19.9385C221.903 19.9385 221.818 20.0149 221.783 20.1676C221.749 20.3203 221.732 20.5689 221.732 20.9073V36.1627C221.732 36.7077 221.538 37.1824 221.146 37.5912C220.755 37.9985 220.273 38.2006 219.696 38.2006H212.921C212.275 38.2006 211.715 37.9386 211.241 37.4115C210.763 36.8844 210.526 36.263 210.526 35.5487V5.50068C210.526 4.75348 210.782 4.09014 211.292 3.51215C211.8 2.93416 212.395 2.64516 213.072 2.64516H219.391C219.967 2.64516 220.417 2.72003 220.74 2.87277C221.061 3.027 221.478 3.37589 221.986 3.91944C223.549 5.55309 226.095 8.21245 229.627 11.9035C233.158 15.5946 235.927 18.4591 237.928 20.5C238.2 20.6707 238.387 20.7546 238.489 20.7546C238.694 20.7546 238.795 20.4835 238.795 19.9385V4.73552C238.795 4.19196 238.997 3.70681 239.407 3.28155C239.814 2.8563 240.272 2.64516 240.782 2.64516H247.249C247.997 2.64516 248.643 2.91619 249.185 3.45974C249.728 4.00329 250 4.63369 250 5.34795V35.7015C250 36.3828 249.737 36.9952 249.211 37.5373C248.686 38.0838 248.08 38.3548 247.403 38.3548H241.648C241.002 38.3548 240.551 38.3294 240.296 38.2785C240.042 38.2276 239.781 38.1347 239.509 37.9985" fill="white"/>
<path fill-rule="evenodd" clip-rule="evenodd" d="M77.4447 7.46819V7.46512L72.7178 4.93745C71.755 2.06684 69.0774 0 65.9251 0C63.6664 0 61.6517 1.0671 60.3363 2.72364C59.7727 3.44014 59.3342 4.26688 59.0675 5.16251C58.9726 5.46718 58.9003 5.7795 58.8506 6.10254L55.531 20.5077L38.2448 30.2601L31.1718 34.2575L30.9231 34.3677C30.8644 34.3922 30.8162 34.429 30.783 34.478C30.7423 34.5346 30.7197 34.605 30.7197 34.6847C30.7197 34.8684 30.8704 35.0215 31.0512 35.0215H31.0557L31.11 35.0123H31.1205L40.5593 34.0876L41.8717 33.959L40.8968 34.5071L30.441 40.3631C30.3325 40.4243 30.2632 40.5392 30.2632 40.6632C30.2632 40.85 30.4138 41 30.5977 41C30.6188 41 30.6414 41 30.661 40.9969L30.7333 40.9724L43.1239 36.8311L46.1782 35.8084C49.2551 38.3912 53.203 39.9482 57.5095 39.9482C66.2385 39.9482 73.5059 33.5517 75.0112 25.1236C75.0278 25.0608 75.0368 24.9965 75.0429 24.9307C75.2161 23.9355 75.305 22.9144 75.305 21.8656C75.305 21.0481 75.2508 20.2428 75.1453 19.4497C75.0594 18.7991 74.9359 18.1622 74.7882 17.5391C74.7837 17.5161 74.7746 17.4901 74.7731 17.4702C74.6857 17.1012 74.5938 16.7429 74.4929 16.3832C74.0468 14.8445 72.8655 12.4271 72.088 11.0691L77.4432 8.03771C77.4432 8.03771 77.4447 8.03925 77.4447 8.03771L77.5095 7.99944C77.5849 7.94279 77.6316 7.85246 77.6316 7.75142C77.6316 7.62435 77.5532 7.51258 77.4447 7.46819" fill="white"/>
</svg>
